<svg width="72" height="10" viewBox="0 0 72 10" fill="none" xmlns="http://www.w3.org/2000/svg">
<path fill-rule="evenodd" clip-rule="evenodd" d="M12.0086 10H11.9995H0L3.89436 0.00279098H8.82315L5.71375 7.97263H12.0695L15.1819 0H20.0133L18.3887 4.07708L25.0608 0H35.4052L37.7418 6.42279H37.8331C38.2159 4.98907 38.6965 3.57887 39.2721 2.2005L40.1271 0.00279098H44.5995L40.696 10H35.0066L32.6091 3.18068H32.5544C32.1058 4.73055 31.5706 6.25821 30.951 7.75761L30.0778 9.99162H22.137L19.5022 5.80285L17.3421 6.87238L16.1251 10H12.0086ZM26.2108 8.4334L29.1316 0.949458L23.287 4.13013L26.2108 8.4334ZM57.4601 10H52.9968L41.5784 9.99721L45.4819 0H50.4198L47.3013 7.97263H53.7817L56.8942 0H62.8026L65.1392 6.42279H65.2305C65.6133 4.98907 66.094 3.57887 66.6696 2.2005L67.5245 0.00279098H72L68.0965 10H62.4071L60.0096 3.18068H59.9549C59.5016 4.73364 58.9613 6.2641 58.3363 7.76599L57.4601 10Z" fill="#676560"/>
</svg>
